<svg width="40" height="40" viewBox="0 0 40 40" version="1.1" xmlns="http://www.w3.org/2000/svg" xmlns:xlink="http://www.w3.org/1999/xlink">
<title>Circle - F2</title>
<desc>Created using Figma</desc>
<g id="Canvas" transform="translate(-1986 -1033)">
<g id="Circle - F2" filter="url(#filter0_d)">
<g id="Ellipse">
<mask id="mask0_outline_ins">
<use xlink:href="#path0_fill" fill="white" transform="translate(1990 1036)"/>
</mask>
<g mask="url(#mask0_outline_ins)">
<use xlink:href="#path1_stroke_2x" transform="translate(1990 1036)" fill="#C4C4C4"/>
</g>
</g>
<g id="Line">
<use xlink:href="#path2_stroke" transform="matrix(1 -2.67189e-24 2.67189e-24 1 1993 1060)" fill="#C4C4C4"/>
</g>
<g id="Line">
<use xlink:href="#path3_stroke" transform="matrix(1 -2.67189e-24 2.67189e-24 1 1990 1053)" fill="#C4C4C4"/>
</g>
<g id="Line">
<use xlink:href="#path2_stroke" transform="matrix(1 -2.67189e-24 2.67189e-24 1 1993 1046)" fill="#C4C4C4"/>
</g>
</g>
</g>
<defs>
<filter id="filter0_d" filterUnits="userSpaceOnUse" x="1986" y="1033" width="40" height="40" color-interpolation-filters="sRGB">
<feFlood flood-opacity="0" result="BackgroundImageFix"/>
<feColorMatrix in="SourceAlpha" type="matrix" values="0 0 0 0 0 0 0 0 0 0 0 0 0 0 0 0 0 0 255 0"/>
<feOffset dx="0" dy="1"/>
<feGaussianBlur stdDeviation="2"/>
<feColorMatrix type="matrix" values="0 0 0 0 0 0 0 0 0 0 0 0 0 0 0 0 0 0 0.25 0"/>
<feBlend mode="normal" in2="BackgroundImageFix" result="effect1_dropShadow"/>
<feBlend mode="normal" in="SourceGraphic" in2="effect1_dropShadow" result="shape"/>
</filter>
<path id="path0_fill" d="M 32 16C 32 24.8366 24.8366 32 16 32C 7.16344 32 0 24.8366 0 16C 0 7.16344 7.16344 0 16 0C 24.8366 0 32 7.16344 32 16Z"/>
<path id="path1_stroke_2x" d="M 29 16C 29 23.1797 23.1797 29 16 29L 16 35C 26.4934 35 35 26.4934 35 16L 29 16ZM 16 29C 8.8203 29 3 23.1797 3 16L -3 16C -3 26.4934 5.50659 35 16 35L 16 29ZM 3 16C 3 8.8203 8.8203 3 16 3L 16 -3C 5.50659 -3 -3 5.50659 -3 16L 3 16ZM 16 3C 23.1797 3 29 8.8203 29 16L 35 16C 35 5.50659 26.4934 -3 16 -3L 16 3Z"/>
<path id="path2_stroke" d="M 0 0L 26 0L 26 -2L 0 -2L 0 0Z"/>
<path id="path3_stroke" d="M 0 0L 32 0L 32 -2L 0 -2L 0 0Z"/>
</defs>
</svg>
